<svg width="49" height="49" viewBox="0 0 49 49" fill="none" xmlns="http://www.w3.org/2000/svg">
<path fill-rule="evenodd" clip-rule="evenodd" d="M24.5 0.412109C11.242 0.412109 0.5 11.1619 0.5 24.4078C0.5 36.9989 10.2139 47.3338 22.5532 48.3255V48.4121H24.5C37.758 48.4121 48.5 37.6623 48.5 24.4165C48.5 11.1716 37.7589 0.412109 24.5 0.412109ZM29.8032 43.8125C28.2975 44.2232 26.7214 44.4632 25.0969 44.5106H24.5C21.7911 44.5106 19.2068 43.9741 16.8475 43.0015C19.1318 34.771 25.3241 28.8756 32.4119 26.2413C33.635 32.1692 32.7471 38.5216 29.8032 43.8125ZM31.3327 22.4922C23.2432 25.4058 16.1783 31.9689 13.3395 41.1286C7.94677 37.5217 4.3935 31.377 4.3935 24.4078C4.3935 21.9364 4.83988 19.5687 5.65651 17.3812C8.09064 18.594 10.6934 19.4519 13.3701 19.929C16.7797 20.5541 20.2731 20.5333 23.6729 19.9204C25.608 19.571 27.4973 19.0145 29.3087 18.273C30.115 19.6134 30.7932 21.0258 31.3327 22.4922ZM36.1646 25.1698C37.3336 30.5656 36.9791 36.2836 35.1135 41.4929C40.6485 38.046 44.3853 31.9843 44.597 25.0399C41.8455 24.5411 38.9775 24.602 36.1646 25.1698ZM44.3265 21.0544C41.2794 20.6265 38.1459 20.7656 35.085 21.4194C34.4821 19.7282 33.7212 18.0989 32.8146 16.5519C35.3294 15.0995 37.626 13.2715 39.6002 11.1399C42.0146 13.8852 43.6929 17.2934 44.3265 21.0544ZM14.058 16.0974C11.7327 15.6834 9.47419 14.9371 7.36653 13.8838C9.17923 10.9403 11.7295 8.49889 14.7599 6.81753L14.7833 6.82488L14.7842 6.82516L14.7843 6.82519L14.7843 6.8252C15.1145 6.92911 15.4297 7.0283 15.7332 7.13723C15.8451 7.18 15.9548 7.22157 16.062 7.2622L16.0636 7.26284L16.0637 7.26287L16.0638 7.26289C16.5559 7.4495 16.9954 7.61613 17.3625 7.78633L17.4673 7.8387L17.4923 7.85031C17.7241 7.95813 18.0582 8.11736 18.3592 8.26091C18.5192 8.33726 18.6699 8.40911 18.7911 8.46641L18.7956 8.46888C18.8968 8.52326 18.9819 8.56893 19.0611 8.61618C19.1256 8.65803 19.1832 8.69193 19.2141 8.71001C19.2706 8.74308 19.3287 8.77578 19.3765 8.80241C19.4174 8.82513 19.4575 8.84726 19.4876 8.86376L19.5027 8.87208L19.5348 8.88978L19.5388 8.89211C19.5834 8.91783 19.6376 8.94873 19.6993 8.98398C19.8317 9.05951 19.999 9.15498 20.1828 9.26253C20.3123 9.33843 20.4335 9.41081 20.5323 9.47208C20.6058 9.51773 20.6458 9.54421 20.661 9.55429L20.6619 9.55488C20.6681 9.55904 20.6695 9.56 20.667 9.55808L20.7524 9.62276L20.8472 9.67908C20.9918 9.76489 21.1343 9.86349 21.3121 9.98651L21.3121 9.98654L21.3122 9.98658L21.3129 9.98711C21.3941 10.0433 21.4827 10.1046 21.5821 10.1721L21.6497 10.2179L21.7071 10.2503C21.7071 10.2504 21.7098 10.2522 21.7155 10.2561C21.7309 10.2665 21.7684 10.2917 21.8338 10.3386C21.9344 10.4106 22.0558 10.5009 22.1895 10.6014L22.3477 10.7207C22.4291 10.7821 22.5116 10.8444 22.5818 10.8969C22.6745 10.9662 22.7879 11.0505 22.8903 11.1214C24.3842 12.264 25.7498 13.5687 26.9656 15.0067C25.6721 15.48 24.3389 15.8443 22.9815 16.0894C20.0224 16.6229 17 16.6373 14.0682 16.0993L14.0631 16.0983L14.058 16.0974ZM24.5 4.3049C29.115 4.3049 33.3666 5.86144 36.7598 8.47725C34.9807 10.402 32.8974 12.0412 30.6163 13.324C29.048 11.3307 27.2335 9.53595 25.2106 7.99496L25.1617 7.95776L25.111 7.92393L25.0972 7.91433C25.0864 7.9067 25.072 7.89641 25.0536 7.883C25.0162 7.85586 24.9699 7.82161 24.9144 7.78004C24.8515 7.73295 24.7883 7.6853 24.7205 7.63412L24.7204 7.63401L24.7065 7.62352C24.6515 7.58199 24.5933 7.53806 24.5295 7.49017C24.3917 7.38651 24.2405 7.27376 24.1016 7.17424C24.0045 7.10468 23.865 7.00629 23.7225 6.91953L23.6322 6.85701L23.6317 6.85666L23.6316 6.85664C23.4463 6.72827 23.1683 6.5357 22.9153 6.38037C22.679 6.21471 22.3596 6.02598 22.1504 5.90345C21.9478 5.78482 21.7296 5.66031 21.5942 5.58301L21.5931 5.58241L21.4905 5.52374C21.4651 5.50889 21.4431 5.49662 21.4344 5.49181L21.4332 5.49114L21.3807 5.46206L21.3629 5.45226C21.3327 5.43563 21.3024 5.41899 21.271 5.40149C21.235 5.38147 21.2059 5.36495 21.1847 5.35259L21.1701 5.34236L21.1184 5.31079C20.9314 5.19654 20.7366 5.0922 20.6308 5.03556L20.6286 5.03435L20.5917 5.01461L20.5465 4.99027L20.5001 4.96834C20.4072 4.92448 20.2698 4.85906 20.1139 4.78474C21.5257 4.4706 22.9935 4.3049 24.5 4.3049Z" fill="white" style="fill:white;fill-opacity:1;"/>
</svg>
