<svg width="49" height="49" viewBox="0 0 49 49" fill="none" xmlns="http://www.w3.org/2000/svg">
<path d="M24.4995 0.587891C11.2448 0.587891 0.499512 11.3332 0.499512 24.5879C0.499512 35.8429 8.24863 45.2874 18.7021 47.8813V31.9223H13.7533V24.5879H18.7021V21.4276C18.7021 13.2589 22.399 9.47269 30.4189 9.47269C31.9395 9.47269 34.5632 9.77125 35.6365 10.0689V16.7169C35.0701 16.6573 34.0861 16.6276 32.864 16.6276C28.929 16.6276 27.4083 18.1185 27.4083 21.994V24.5879H35.2477L33.9008 31.9223H27.4083V48.4122C39.2922 46.977 48.5005 36.8586 48.5005 24.5879C48.4995 11.3332 37.7542 0.587891 24.4995 0.587891Z" fill="white" style="fill:white;fill-opacity:1;"/>
</svg>
