<svg width="49" height="49" viewBox="0 0 49 49" fill="none" xmlns="http://www.w3.org/2000/svg">
<g clip-path="url(#clip0_108_520)">
<path fill-rule="evenodd" clip-rule="evenodd" d="M24.5199 0.412109C11.2375 0.412109 0.5 11.2288 0.5 24.6104C0.5 35.3071 7.37988 44.3617 16.9241 47.5663C18.1174 47.8072 18.5545 47.0457 18.5545 46.405C18.5545 45.844 18.5151 43.9211 18.5151 41.9176C11.8334 43.3601 10.442 39.033 10.442 39.033C9.36818 36.2285 7.77715 35.5077 7.77715 35.5077C5.59022 34.0254 7.93645 34.0254 7.93645 34.0254C10.3623 34.1856 11.6353 36.5093 11.6353 36.5093C13.7824 40.1948 17.2422 39.1534 18.6341 38.5123C18.8328 36.9498 19.4695 35.8681 20.1455 35.2673C14.8163 34.7063 9.20937 32.6231 9.20937 23.3282C9.20937 20.684 10.1632 18.5207 11.6746 16.8382C11.4361 16.2374 10.6008 13.753 11.9135 10.4278C11.9135 10.4278 13.9417 9.78671 18.5146 12.9117C20.4725 12.382 22.4916 12.1126 24.5199 12.1103C26.548 12.1103 28.6154 12.3911 30.5246 12.9117C35.0981 9.78671 37.1262 10.4278 37.1262 10.4278C38.4389 13.753 37.6031 16.2374 37.3646 16.8382C38.9158 18.5207 39.8303 20.684 39.8303 23.3282C39.8303 32.6231 34.2234 34.666 28.8544 35.2673C29.7296 36.0284 30.4848 37.4705 30.4848 39.7542C30.4848 42.9992 30.4454 45.6036 30.4454 46.4045C30.4454 47.0457 30.883 47.8072 32.0758 47.5668C41.62 44.3612 48.4999 35.3071 48.4999 24.6104C48.5392 11.2288 37.7624 0.412109 24.5199 0.412109Z" fill="white" style="fill:white;fill-opacity:1;"/>
</g>
<defs>
<clipPath id="clip0_108_520">
<rect width="48" height="48" fill="white" style="fill:white;fill-opacity:1;" transform="translate(0.5 0.412109)"/>
</clipPath>
</defs>
</svg>
