<svg width="49" height="49" viewBox="0 0 49 49" fill="none" xmlns="http://www.w3.org/2000/svg">
<g clip-path="url(#clip0_108_514)">
<path d="M24.5 4.90977C30.9125 4.90977 31.6719 4.93789 34.1938 5.05039C36.5375 5.15352 37.8031 5.54727 38.6469 5.87539C39.7625 6.30664 40.5688 6.83164 41.4031 7.66602C42.2469 8.50977 42.7625 9.30664 43.1938 10.4223C43.5219 11.266 43.9156 12.541 44.0188 14.8754C44.1313 17.4066 44.1594 18.166 44.1594 24.5691C44.1594 30.9816 44.1313 31.741 44.0188 34.2629C43.9156 36.6066 43.5219 37.8723 43.1938 38.716C42.7625 39.8316 42.2375 40.6379 41.4031 41.4723C40.5594 42.316 39.7625 42.8316 38.6469 43.2629C37.8031 43.591 36.5281 43.9848 34.1938 44.0879C31.6625 44.2004 30.9031 44.2285 24.5 44.2285C18.0875 44.2285 17.3281 44.2004 14.8063 44.0879C12.4625 43.9848 11.1969 43.591 10.3531 43.2629C9.2375 42.8316 8.43125 42.3066 7.59688 41.4723C6.75313 40.6285 6.2375 39.8316 5.80625 38.716C5.47813 37.8723 5.08438 36.5973 4.98125 34.2629C4.86875 31.7316 4.84063 30.9723 4.84063 24.5691C4.84063 18.1566 4.86875 17.3973 4.98125 14.8754C5.08438 12.5316 5.47813 11.266 5.80625 10.4223C6.2375 9.30664 6.7625 8.50039 7.59688 7.66602C8.44063 6.82227 9.2375 6.30664 10.3531 5.87539C11.1969 5.54727 12.4719 5.15352 14.8063 5.05039C17.3281 4.93789 18.0875 4.90977 24.5 4.90977ZM24.5 0.587891C17.9844 0.587891 17.1688 0.616016 14.6094 0.728516C12.0594 0.841016 10.3063 1.25352 8.7875 1.84414C7.20312 2.46289 5.8625 3.27852 4.53125 4.61914C3.19063 5.95039 2.375 7.29102 1.75625 8.86602C1.16562 10.3941 0.753125 12.1379 0.640625 14.6879C0.528125 17.2566 0.5 18.0723 0.5 24.5879C0.5 31.1035 0.528125 31.9191 0.640625 34.4785C0.753125 37.0285 1.16562 38.7816 1.75625 40.3004C2.375 41.8848 3.19063 43.2254 4.53125 44.5566C5.8625 45.8879 7.20313 46.7129 8.77813 47.3223C10.3063 47.9129 12.05 48.3254 14.6 48.4379C17.1594 48.5504 17.975 48.5785 24.4906 48.5785C31.0063 48.5785 31.8219 48.5504 34.3813 48.4379C36.9313 48.3254 38.6844 47.9129 40.2031 47.3223C41.7781 46.7129 43.1188 45.8879 44.45 44.5566C45.7812 43.2254 46.6063 41.8848 47.2156 40.3098C47.8063 38.7816 48.2188 37.0379 48.3313 34.4879C48.4438 31.9285 48.4719 31.1129 48.4719 24.5973C48.4719 18.0816 48.4438 17.266 48.3313 14.7066C48.2188 12.1566 47.8063 10.4035 47.2156 8.88477C46.625 7.29102 45.8094 5.95039 44.4688 4.61914C43.1375 3.28789 41.7969 2.46289 40.2219 1.85352C38.6938 1.26289 36.95 0.850391 34.4 0.737891C31.8313 0.616016 31.0156 0.587891 24.5 0.587891Z" fill="white" style="fill:white;fill-opacity:1;"/>
<path d="M24.5 12.2598C17.6938 12.2598 12.1719 17.7816 12.1719 24.5879C12.1719 31.3941 17.6938 36.916 24.5 36.916C31.3062 36.916 36.8281 31.3941 36.8281 24.5879C36.8281 17.7816 31.3062 12.2598 24.5 12.2598ZM24.5 32.5848C20.0844 32.5848 16.5031 29.0035 16.5031 24.5879C16.5031 20.1723 20.0844 16.591 24.5 16.591C28.9156 16.591 32.4969 20.1723 32.4969 24.5879C32.4969 29.0035 28.9156 32.5848 24.5 32.5848Z" fill="white" style="fill:white;fill-opacity:1;"/>
<path d="M40.1937 11.7727C40.1937 13.3664 38.9 14.6508 37.3156 14.6508C35.7219 14.6508 34.4375 13.357 34.4375 11.7727C34.4375 10.1789 35.7313 8.89453 37.3156 8.89453C38.9 8.89453 40.1937 10.1883 40.1937 11.7727Z" fill="white" style="fill:white;fill-opacity:1;"/>
</g>
<defs>
<clipPath id="clip0_108_514">
<rect width="48" height="48" fill="white" style="fill:white;fill-opacity:1;" transform="translate(0.5 0.587891)"/>
</clipPath>
</defs>
</svg>
