<svg width="49" height="49" viewBox="0 0 49 49" fill="none" xmlns="http://www.w3.org/2000/svg">
<g clip-path="url(#clip0_108_518)">
<path d="M44.9469 0.587891H4.04375C2.08437 0.587891 0.5 2.13477 0.5 4.04727V45.1191C0.5 47.0316 2.08437 48.5879 4.04375 48.5879H44.9469C46.9062 48.5879 48.5 47.0316 48.5 45.1285V4.04727C48.5 2.13477 46.9062 0.587891 44.9469 0.587891ZM14.7406 41.491H7.61563V18.5785H14.7406V41.491ZM11.1781 15.4566C8.89062 15.4566 7.04375 13.6098 7.04375 11.3316C7.04375 9.05352 8.89062 7.20664 11.1781 7.20664C13.4563 7.20664 15.3031 9.05352 15.3031 11.3316C15.3031 13.6004 13.4563 15.4566 11.1781 15.4566ZM41.4031 41.491H34.2875V30.3535C34.2875 27.7004 34.2406 24.2785 30.5844 24.2785C26.8812 24.2785 26.3187 27.1754 26.3187 30.166V41.491H19.2125V18.5785H26.0375V21.7098H26.1312C27.0781 19.9098 29.4031 18.0066 32.8625 18.0066C40.0719 18.0066 41.4031 22.7504 41.4031 28.9191V41.491Z" fill="white" style="fill:white;fill-opacity:1;"/>
</g>
<defs>
<clipPath id="clip0_108_518">
<rect width="48" height="48" fill="white" style="fill:white;fill-opacity:1;" transform="translate(0.5 0.587891)"/>
</clipPath>
</defs>
</svg>
