<?xml version="1.0" encoding="utf-8"?>
<!-- Generator: Adobe Illustrator 28.2.0, SVG Export Plug-In . SVG Version: 6.00 Build 0)  -->
<svg version="1.1" id="Слой_1" xmlns="http://www.w3.org/2000/svg" xmlns:xlink="http://www.w3.org/1999/xlink" x="0px" y="0px"
	 viewBox="0 0 595.28 112.08" style="enable-background:new 0 0 595.28 112.08;" xml:space="preserve">
<style type="text/css">
	.st0{fill-rule:evenodd;clip-rule:evenodd;}
	.st1{clip-path:url(#SVGID_00000147941770844876844730000017441373329423482814_);}
	.st2{clip-path:url(#SVGID_00000105423416824905576450000015905993399396921488_);}
</style>
<path d="M58.21,28.2c2.82,0,5.58,0.44,8.27,1.32c2.69,0.88,5.06,2.16,7.11,3.83c2.07,1.68,3.56,3.73,4.47,6.16l-5.17,1.86
	c-0.57-1.63-1.62-3.01-3.15-4.15c-1.5-1.16-3.26-2.04-5.28-2.63c-2.02-0.62-4.11-0.93-6.26-0.93c-2.46-0.03-4.77,0.39-6.91,1.24
	c-2.12,0.83-3.85,1.99-5.17,3.49c-1.32,1.47-1.98,3.2-1.98,5.19c0,2.32,0.61,4.12,1.83,5.38c1.24,1.24,2.93,2.17,5.05,2.79
	c2.12,0.62,4.52,1.18,7.19,1.67c3.47,0.59,6.7,1.52,9.67,2.79c2.98,1.24,5.37,2.91,7.19,5c1.81,2.07,2.72,4.62,2.72,7.67
	c0,3.1-0.91,5.81-2.72,8.13c-1.81,2.3-4.21,4.08-7.19,5.34c-2.95,1.27-6.18,1.9-9.67,1.9c-2.9,0-5.71-0.45-8.43-1.36
	c-2.69-0.9-5.05-2.19-7.07-3.87c-2.02-1.68-3.44-3.68-4.27-6l5.09-1.9c0.57,1.6,1.61,2.98,3.11,4.15c1.53,1.14,3.3,2.01,5.32,2.63
	c2.05,0.62,4.13,0.93,6.25,0.93c2.49,0,4.8-0.41,6.95-1.24c2.15-0.83,3.89-1.98,5.21-3.45c1.32-1.5,1.98-3.25,1.98-5.27
	c0-2.04-0.69-3.72-2.06-5.04c-1.37-1.32-3.15-2.35-5.32-3.1c-2.15-0.77-4.4-1.37-6.76-1.78c-3.7-0.65-7.03-1.52-9.98-2.63
	c-2.93-1.11-5.24-2.67-6.95-4.69c-1.71-2.04-2.56-4.73-2.56-8.06c0-3.12,0.91-5.84,2.72-8.13c1.81-2.3,4.2-4.08,7.15-5.35
	C51.55,28.84,54.76,28.2,58.21,28.2z"/>
<path d="M140.49,34.44h-18.65v48.81h-5.44V34.44H97.79v0c0-3,2.43-5.42,5.42-5.42h31.85C138.06,29.02,140.49,31.45,140.49,34.44
	L140.49,34.44z"/>
<path class="st0" d="M181.5,29.02c2.9,0,5.52,0.71,7.85,2.13c2.33,1.39,4.18,3.29,5.56,5.69c1.37,2.38,2.06,5.05,2.06,8.02
	c0,2.66-0.54,5.07-1.63,7.24c-1.09,2.17-2.58,3.96-4.47,5.38c-1.86,1.42-3.98,2.36-6.33,2.83l20.42,22.93h-7.06l-16.47-18.43
	c-2.26-2.53-4.84-4.07-7.87-4.07l0,0c-2.79,0-5.06,2.26-5.06,5.06v17.45h-5.44V29.02H181.5z M168.49,55.32h12.55
	c1.92,0,3.66-0.46,5.24-1.39c1.61-0.96,2.88-2.23,3.81-3.84c0.96-1.63,1.44-3.46,1.44-5.5c0-2.04-0.48-3.86-1.44-5.46
	c-0.93-1.63-2.2-2.91-3.81-3.83c-1.58-0.96-3.33-1.43-5.24-1.43h-7.93c-2.55,0-4.62,2.07-4.62,4.62V55.32z"/>
<path class="st0" d="M265.02,83.25h-5.79l-1.29-3.54c-1.77-4.85-6.38-8.08-11.55-8.08h-8.78c-5.36,0-10.14,3.35-11.97,8.38
	l-1.18,3.24h-5.79l19.77-54.23h6.76L265.02,83.25z M230.68,66.2h22.3l-11.15-30.52L230.68,66.2z"/>
<path d="M321.96,34.44h-18.65v48.81h-5.44V34.44h-18.61v0c0-3,2.43-5.42,5.42-5.42h31.85C319.53,29.02,321.96,31.45,321.96,34.44
	L321.96,34.44z"/>
<path d="M425.22,27.77c4.17,0,8.11,0.97,11.81,2.91c3.73,1.94,6.89,4.69,9.48,8.25l-4.86,2.63c-2.07-2.71-4.57-4.79-7.5-6.24
	c-2.9-1.45-5.89-2.17-8.97-2.17c-2.93,0-5.69,0.59-8.27,1.78c-2.56,1.16-4.83,2.79-6.8,4.88c-1.97,2.09-3.51,4.51-4.62,7.24
	c-1.11,2.74-1.67,5.68-1.67,8.83c0,3.12,0.56,6.06,1.67,8.79c1.11,2.74,2.64,5.15,4.58,7.24c1.97,2.07,4.25,3.69,6.84,4.88
	c2.59,1.16,5.36,1.74,8.31,1.74c2.43,0,4.74-0.41,6.92-1.24c2.2-0.85,4.21-2.04,6.02-3.56s3.34-3.31,4.58-5.35
	c1.27-2.04,2.19-4.26,2.76-6.66l-14.68,0v-4.92l21.02,0c-0.08,3.74-0.83,7.26-2.25,10.54c-1.42,3.28-3.37,6.17-5.83,8.68
	c-2.43,2.48-5.24,4.43-8.43,5.85c-3.16,1.39-6.55,2.09-10.18,2.09c-3.73,0-7.23-0.72-10.49-2.17c-3.24-1.47-6.07-3.5-8.51-6.08
	c-2.43-2.61-4.34-5.6-5.71-8.99c-1.37-3.41-2.06-7.05-2.06-10.92c0-3.95,0.71-7.63,2.14-11.04c1.43-3.41,3.38-6.38,5.86-8.91
	c2.49-2.56,5.34-4.55,8.55-5.97C418.16,28.48,421.59,27.77,425.22,27.77z"/>
<path d="M377.37,34.16H349.7v17.04h22.88v5.42H349.7v20.92h27.66v5.42h-33.1V28.74h33.1V34.16z"/>
<path d="M541.67,51.13l16.36-22.39h6.72L545.09,55.7l19.89,27.27h-6.76l-16.55-22.62L525.2,82.97h-6.8l19.93-27.27l-19.7-26.96h6.72
	L541.67,51.13z"/>
<g>
	<g id="_x3C_Зеркальный_повтор_x3E__00000165209882502658897910000008628720441727750549_">
		<g>
			<defs>
				<rect id="SVGID_1_" x="476.17" y="45.58" width="8.95" height="37.39"/>
			</defs>
			<clipPath id="SVGID_00000032640527469262898220000016724847475343393188_">
				<use xlink:href="#SVGID_1_"  style="overflow:visible;"/>
			</clipPath>
			<g style="clip-path:url(#SVGID_00000032640527469262898220000016724847475343393188_);">
				<polygon points="485.12,45.58 485.12,82.97 476.17,82.97 476.17,71.16 				"/>
			</g>
		</g>
	</g>
	<g id="_x3C_Зеркальный_повтор_x3E__00000091716415760722183610000004496222812881995916_">
		<g>
			<defs>
				<rect id="SVGID_00000022536356336758985040000003420420896479365285_" x="485.11" y="45.58" width="8.95" height="37.39"/>
			</defs>
			<clipPath id="SVGID_00000130606054052552089350000001840644041666901905_">
				<use xlink:href="#SVGID_00000022536356336758985040000003420420896479365285_"  style="overflow:visible;"/>
			</clipPath>
			<g style="clip-path:url(#SVGID_00000130606054052552089350000001840644041666901905_);">
				<polygon points="485.11,45.58 485.11,82.97 494.06,82.97 494.06,71.16 				"/>
			</g>
		</g>
	</g>
</g>
<circle cx="484.66" cy="31.43" r="2.69"/>
</svg>
