<svg width="278" height="30" viewBox="0 0 278 30" fill="none" xmlns="http://www.w3.org/2000/svg">
          <path d="M11.3576 0.226199C12.8414 0.226199 14.2936 0.457653 15.7089 0.920562C17.1243 1.38347 18.3713 2.05679 19.4499 2.93527C20.5391 3.819 21.3231 4.89737 21.8019 6.17563L19.0816 7.15405C18.7817 6.29661 18.2292 5.57069 17.4242 4.97101C16.635 4.36082 15.7089 3.89791 14.6461 3.58755C13.5832 3.26141 12.4836 3.09834 11.3523 3.09834C10.058 3.08256 8.84253 3.30349 7.71655 3.75062C6.60109 4.18722 5.69083 4.79742 4.9963 5.58647C4.30177 6.35974 3.9545 7.26978 3.9545 8.31658C3.9545 9.53698 4.27546 10.4838 4.91737 11.1466C5.56981 11.7989 6.45902 12.2881 7.57449 12.6143C8.68995 12.9404 9.95273 13.235 11.3576 13.4927C13.1834 13.8031 14.8829 14.2923 16.4456 14.9604C18.0135 15.6127 19.271 16.4911 20.2286 17.5905C21.181 18.6794 21.6598 20.0208 21.6598 21.6252C21.6598 23.2559 21.181 24.6815 20.2286 25.9018C19.2763 27.1117 18.0135 28.0481 16.4456 28.7109C14.8934 29.3789 13.1939 29.7103 11.3576 29.7103C9.83171 29.7103 8.3532 29.4736 6.92205 28.9949C5.50667 28.5215 4.26493 27.8429 3.20209 26.9592C2.13925 26.0754 1.3921 25.0234 0.955383 23.803L3.63354 22.8035C3.93345 23.6452 4.48066 24.3711 5.2699 24.9865C6.07493 25.5862 7.00623 26.0439 8.06908 26.37C9.1477 26.6962 10.2421 26.8592 11.3576 26.8592C12.6677 26.8592 13.8832 26.6436 15.0144 26.2069C16.1456 25.7703 17.0612 25.1654 17.7557 24.3921C18.4502 23.6031 18.7975 22.6825 18.7975 21.6199C18.7975 20.5468 18.4344 19.6631 17.7136 18.9687C16.9928 18.2744 16.0562 17.7326 14.9144 17.338C13.7832 16.933 12.5993 16.6174 11.3576 16.4017C9.41079 16.0598 7.65867 15.6021 6.1065 15.0182C4.56485 14.4343 3.34941 13.6137 2.44968 12.5511C1.54994 11.478 1.10271 10.063 1.10271 8.31132C1.10271 6.6701 1.58151 5.23929 2.53387 4.03467C3.48622 2.8248 4.74374 1.88846 6.29591 1.2204C7.85335 0.56286 9.54233 0.226199 11.3576 0.226199Z" fill="white" />
          <path d="M54.6501 3.50864H44.8372V29.1843H41.9749V3.50864H32.183C32.183 1.93054 33.4616 0.657541 35.0348 0.657541H51.793C53.3715 0.657541 54.6501 1.9358 54.6501 3.50864Z" fill="white"  />
          <path fill-rule="evenodd" clip-rule="evenodd" d="M76.2279 0.657541C77.7538 0.657541 79.1323 1.03102 80.3583 1.77799C81.5842 2.50917 82.5576 3.50864 83.2837 4.77111C84.0046 6.02307 84.3676 7.42758 84.3676 8.9899C84.3676 10.3891 84.0835 11.6569 83.51 12.7984C82.9365 13.9399 82.1525 14.8815 81.158 15.6284C80.1794 16.3754 79.0639 16.8699 77.8274 17.1171L88.5716 29.179H84.8569L76.1911 19.4842C75.002 18.1534 73.6445 17.3433 72.0502 17.3433C70.5822 17.3433 69.3878 18.5321 69.3878 20.005V29.1843H66.5255V0.657541H76.2279ZM69.3826 14.4922H75.9859C76.9961 14.4922 77.9116 14.2502 78.743 13.761C79.5901 13.256 80.2583 12.588 80.7476 11.741C81.2527 10.8836 81.5053 9.92097 81.5053 8.84787C81.5053 7.77476 81.2527 6.81738 80.7476 5.97573C80.2583 5.1183 79.5901 4.44497 78.743 3.96102C77.9116 3.45603 76.9908 3.2088 75.9859 3.2088H71.8134C70.4717 3.2088 69.3826 4.29769 69.3826 5.63907V14.4922Z" fill="white"  />
          <path fill-rule="evenodd" clip-rule="evenodd" d="M120.173 29.1843H117.126L116.448 27.3221C115.516 24.7709 113.091 23.0718 110.37 23.0718H105.751C102.931 23.0718 100.416 24.834 99.4527 27.4799L98.8318 29.1843H95.7853L106.188 0.657541H109.744L120.173 29.1843ZM102.105 20.2154H113.838L107.971 4.16092L102.105 20.2154Z" fill="white"  />
          <path d="M150.132 3.50864H140.32V29.1843H137.457V3.50864H127.665C127.665 1.93054 128.944 0.657541 130.517 0.657541H147.275C148.854 0.657541 150.132 1.9358 150.132 3.50864Z" fill="white"  />
          <path d="M204.464 0C206.658 0 208.731 0.510252 210.678 1.53075C212.64 2.55126 214.303 3.99785 215.666 5.87052L213.109 7.25399C212.019 5.82844 210.704 4.73429 209.162 3.97155C207.637 3.2088 206.063 2.83006 204.443 2.83006C202.901 2.83006 201.449 3.14041 200.091 3.76639C198.744 4.37659 197.55 5.23402 196.514 6.33343C195.477 7.43284 194.667 8.70584 194.083 10.1419C193.499 11.5832 193.204 13.1298 193.204 14.7868C193.204 16.428 193.499 17.9745 194.083 19.4106C194.667 20.8519 195.472 22.1197 196.492 23.2191C197.529 24.308 198.729 25.1601 200.091 25.7861C201.454 26.3963 202.912 26.7014 204.464 26.7014C205.742 26.7014 206.958 26.4857 208.105 26.0491C209.262 25.602 210.32 24.976 211.272 24.1765C212.225 23.3769 213.03 22.4353 213.682 21.3622C214.35 20.2891 214.834 19.1213 215.134 17.8588H207.41V15.2707H218.47C218.428 17.2381 218.033 19.0897 217.286 20.8151C216.539 22.5405 215.513 24.0607 214.219 25.3811C212.94 26.6856 211.462 27.7114 209.783 28.4584C208.121 29.1895 206.337 29.5578 204.427 29.5578C202.464 29.5578 200.623 29.179 198.908 28.4163C197.203 27.643 195.714 26.5752 194.43 25.218C193.151 23.8451 192.146 22.2722 191.426 20.489C190.705 18.6952 190.342 16.7804 190.342 14.7447C190.342 12.6669 190.715 10.7311 191.468 8.93729C192.22 7.14352 193.246 5.5812 194.551 4.25034C195.861 2.9037 197.361 1.85689 199.05 1.10993C200.749 0.373482 202.554 0 204.464 0Z" fill="white"  />
          <path d="M179.287 3.36135H164.728V12.3249H176.767V15.176H164.728V26.1806H179.282V29.0317H161.866V0.510255H179.282V3.36135H179.287Z" fill="white"  />
          <path d="M265.735 12.2881L274.343 0.510255H277.879L267.535 14.6921L278 29.037H274.443L265.735 17.1381L257.069 29.037H253.491L263.978 14.6921L253.612 0.510255H257.148L265.735 12.2881Z" fill="white"  />
          <path d="M235.981 9.38545L240.684 22.8249V29.0368H231.271V22.8249L235.975 9.38545V9.36885L235.977 9.37666L235.981 9.36885V9.38545Z" fill="white"  />
          <path d="M235.739 3.34031C236.52 3.34031 237.154 2.70678 237.154 1.92528C237.154 1.14379 236.52 0.510255 235.739 0.510255C234.957 0.510255 234.323 1.14379 234.323 1.92528C234.323 2.70678 234.957 3.34031 235.739 3.34031Z" fill="white"  />
        </svg>