<svg width="49" height="49" viewBox="0 0 49 49" fill="none" xmlns="http://www.w3.org/2000/svg">
<g clip-path="url(#clip0_108_512)">
<path fill-rule="evenodd" clip-rule="evenodd" d="M48.5 24.5879C48.5 37.8427 37.7548 48.5879 24.5 48.5879C11.2452 48.5879 0.5 37.8427 0.5 24.5879C0.5 11.3331 11.2452 0.587891 24.5 0.587891C37.7548 0.587891 48.5 11.3331 48.5 24.5879ZM25.3601 18.3057C23.0257 19.2767 18.3603 21.2863 11.3638 24.3345C10.2277 24.7863 9.63251 25.2283 9.57834 25.6605C9.48677 26.3909 10.4014 26.6785 11.6469 27.0701C11.8164 27.1234 11.9919 27.1786 12.1719 27.2371C13.3973 27.6354 15.0457 28.1014 15.9026 28.12C16.6799 28.1367 17.5475 27.8163 18.5053 27.1586C25.0423 22.7459 28.4168 20.5155 28.6286 20.4674C28.7781 20.4335 28.9852 20.3909 29.1255 20.5156C29.2659 20.6403 29.2521 20.8765 29.2372 20.9399C29.1466 21.3262 25.5562 24.6641 23.6982 26.3914C23.119 26.9299 22.7081 27.3119 22.6242 27.3992C22.436 27.5946 22.2443 27.7794 22.06 27.9571C20.9215 29.0545 20.0678 29.8775 22.1072 31.2215C23.0873 31.8673 23.8715 32.4014 24.6539 32.9342C25.5084 33.5161 26.3606 34.0964 27.4632 34.8192C27.7442 35.0034 28.0125 35.1946 28.2738 35.3809C29.2681 36.0898 30.1615 36.7267 31.2652 36.6252C31.9065 36.5661 32.5689 35.9631 32.9053 34.1646C33.7004 29.9142 35.2633 20.7048 35.6244 16.9098C35.6561 16.5774 35.6163 16.1518 35.5843 15.965C35.5523 15.7782 35.4855 15.5121 35.2427 15.3151C34.9552 15.0818 34.5113 15.0326 34.3127 15.0361C33.41 15.052 32.0251 15.5335 25.3601 18.3057Z" fill="white" style="fill:white;fill-opacity:1;"/>
</g>
<defs>
<clipPath id="clip0_108_512">
<rect width="48" height="48" fill="white" style="fill:white;fill-opacity:1;" transform="translate(0.5 0.587891)"/>
</clipPath>
</defs>
</svg>
