<svg width="49" height="49" viewBox="0 0 49 49" fill="none" xmlns="http://www.w3.org/2000/svg">
<g clip-path="url(#clip0_108_522)">
<path fill-rule="evenodd" clip-rule="evenodd" d="M3.87413 3.78624C0.5 7.16037 0.5 12.5909 0.5 23.4521V25.3721C0.5 36.2333 0.5 41.6638 3.87413 45.038C7.24826 48.4121 12.6788 48.4121 23.54 48.4121H25.46C36.3212 48.4121 41.7517 48.4121 45.1259 45.038C48.5 41.6638 48.5 36.2333 48.5 25.3721V23.4521C48.5 12.5909 48.5 7.16037 45.1259 3.78624C41.7517 0.412109 36.3212 0.412109 25.46 0.412109H23.54C12.6788 0.412109 7.24826 0.412109 3.87413 3.78624ZM8.60012 15.0122C8.86012 27.4922 15.1001 34.9922 26.0401 34.9922H26.6602V27.8522C30.6802 28.2522 33.72 31.1922 34.94 34.9922H40.6201C39.0601 29.3122 34.9599 26.1722 32.3999 24.9722C34.9599 23.4922 38.5599 19.8922 39.4199 15.0122H34.2598C33.1398 18.9722 29.8202 22.5722 26.6602 22.9122V15.0122H21.5V28.8522C18.3 28.0522 14.2601 24.1722 14.0801 15.0122H8.60012Z" fill="white" style="fill:white;fill-opacity:1;"/>
</g>
<defs>
<clipPath id="clip0_108_522">
<rect width="48" height="48" fill="white" style="fill:white;fill-opacity:1;" transform="translate(0.5 0.412109)"/>
</clipPath>
</defs>
</svg>
